<mxfile host="app.diagrams.net" agent="Mozilla/5.0 (Windows NT 10.0; Win64; x64) AppleWebKit/537.36 (KHTML, like Gecko) Chrome/136.0.0.0 Safari/537.36" version="27.0.6">
  <diagram name="Page-1" id="T0r_iOp8UauzRjSlEAUD">
    <mxGraphModel dx="1342" dy="728" grid="1" gridSize="10" guides="1" tooltips="1" connect="1" arrows="1" fold="1" page="1" pageScale="1" pageWidth="1100" pageHeight="850" math="0" shadow="0">
      <root>
        <mxCell id="0" />
        <mxCell id="1" parent="0" />
        <mxCell id="R6gryLu84jvv2Dww0eq9-23" value="Unity" style="swimlane;horizontal=0;whiteSpace=wrap;html=1;" vertex="1" parent="1">
          <mxGeometry x="160" y="300" width="910" height="200" as="geometry" />
        </mxCell>
        <mxCell id="R6gryLu84jvv2Dww0eq9-30" value="Cinemachine" style="rounded=0;whiteSpace=wrap;html=1;" vertex="1" parent="R6gryLu84jvv2Dww0eq9-23">
          <mxGeometry x="140" y="30" width="120" height="60" as="geometry" />
        </mxCell>
        <mxCell id="R6gryLu84jvv2Dww0eq9-40" value="Animation System" style="rounded=0;whiteSpace=wrap;html=1;" vertex="1" parent="R6gryLu84jvv2Dww0eq9-23">
          <mxGeometry x="360" y="30" width="120" height="60" as="geometry" />
        </mxCell>
        <mxCell id="R6gryLu84jvv2Dww0eq9-62" style="edgeStyle=orthogonalEdgeStyle;rounded=0;orthogonalLoop=1;jettySize=auto;html=1;entryX=1;entryY=0.5;entryDx=0;entryDy=0;" edge="1" parent="R6gryLu84jvv2Dww0eq9-23" source="R6gryLu84jvv2Dww0eq9-41" target="R6gryLu84jvv2Dww0eq9-40">
          <mxGeometry relative="1" as="geometry" />
        </mxCell>
        <mxCell id="R6gryLu84jvv2Dww0eq9-68" value="collision" style="edgeLabel;html=1;align=center;verticalAlign=middle;resizable=0;points=[];" vertex="1" connectable="0" parent="R6gryLu84jvv2Dww0eq9-62">
          <mxGeometry x="0.18" y="1" relative="1" as="geometry">
            <mxPoint as="offset" />
          </mxGeometry>
        </mxCell>
        <mxCell id="R6gryLu84jvv2Dww0eq9-72" style="edgeStyle=orthogonalEdgeStyle;rounded=0;orthogonalLoop=1;jettySize=auto;html=1;entryX=0;entryY=0.5;entryDx=0;entryDy=0;" edge="1" parent="R6gryLu84jvv2Dww0eq9-23" source="R6gryLu84jvv2Dww0eq9-41" target="R6gryLu84jvv2Dww0eq9-71">
          <mxGeometry relative="1" as="geometry" />
        </mxCell>
        <mxCell id="R6gryLu84jvv2Dww0eq9-41" value="Unity Physics (PhysX)" style="rounded=0;whiteSpace=wrap;html=1;" vertex="1" parent="R6gryLu84jvv2Dww0eq9-23">
          <mxGeometry x="580" y="30" width="120" height="60" as="geometry" />
        </mxCell>
        <mxCell id="R6gryLu84jvv2Dww0eq9-51" style="edgeStyle=orthogonalEdgeStyle;rounded=0;orthogonalLoop=1;jettySize=auto;html=1;entryX=0.5;entryY=1;entryDx=0;entryDy=0;" edge="1" parent="R6gryLu84jvv2Dww0eq9-23" source="R6gryLu84jvv2Dww0eq9-47" target="R6gryLu84jvv2Dww0eq9-30">
          <mxGeometry relative="1" as="geometry" />
        </mxCell>
        <mxCell id="R6gryLu84jvv2Dww0eq9-53" value="notify wheel moving" style="edgeLabel;html=1;align=center;verticalAlign=middle;resizable=0;points=[];" vertex="1" connectable="0" parent="R6gryLu84jvv2Dww0eq9-51">
          <mxGeometry x="-0.013" y="-3" relative="1" as="geometry">
            <mxPoint x="6" as="offset" />
          </mxGeometry>
        </mxCell>
        <mxCell id="R6gryLu84jvv2Dww0eq9-55" style="edgeStyle=orthogonalEdgeStyle;rounded=0;orthogonalLoop=1;jettySize=auto;html=1;entryX=0.5;entryY=1;entryDx=0;entryDy=0;" edge="1" parent="R6gryLu84jvv2Dww0eq9-23" source="R6gryLu84jvv2Dww0eq9-47" target="R6gryLu84jvv2Dww0eq9-40">
          <mxGeometry relative="1" as="geometry" />
        </mxCell>
        <mxCell id="R6gryLu84jvv2Dww0eq9-60" style="edgeStyle=orthogonalEdgeStyle;rounded=0;orthogonalLoop=1;jettySize=auto;html=1;entryX=0.5;entryY=1;entryDx=0;entryDy=0;" edge="1" parent="R6gryLu84jvv2Dww0eq9-23" source="R6gryLu84jvv2Dww0eq9-47" target="R6gryLu84jvv2Dww0eq9-41">
          <mxGeometry relative="1" as="geometry" />
        </mxCell>
        <mxCell id="R6gryLu84jvv2Dww0eq9-47" value="Unity Input System" style="rounded=0;whiteSpace=wrap;html=1;" vertex="1" parent="R6gryLu84jvv2Dww0eq9-23">
          <mxGeometry x="360" y="125" width="120" height="60" as="geometry" />
        </mxCell>
        <mxCell id="R6gryLu84jvv2Dww0eq9-71" value="Unity UI Toolkit" style="rounded=0;whiteSpace=wrap;html=1;" vertex="1" parent="R6gryLu84jvv2Dww0eq9-23">
          <mxGeometry x="760" y="30" width="120" height="60" as="geometry" />
        </mxCell>
        <mxCell id="R6gryLu84jvv2Dww0eq9-24" value="CRUSH !&amp;nbsp;" style="swimlane;horizontal=0;whiteSpace=wrap;html=1;" vertex="1" parent="1">
          <mxGeometry x="160" y="100" width="910" height="200" as="geometry" />
        </mxCell>
        <mxCell id="R6gryLu84jvv2Dww0eq9-26" value="Roue" style="rounded=0;whiteSpace=wrap;html=1;" vertex="1" parent="R6gryLu84jvv2Dww0eq9-24">
          <mxGeometry x="360" y="60" width="120" height="60" as="geometry" />
        </mxCell>
        <mxCell id="R6gryLu84jvv2Dww0eq9-29" value="Camera" style="rounded=0;whiteSpace=wrap;html=1;" vertex="1" parent="R6gryLu84jvv2Dww0eq9-24">
          <mxGeometry x="80" y="60" width="120" height="60" as="geometry" />
        </mxCell>
        <mxCell id="R6gryLu84jvv2Dww0eq9-33" value="Hyena" style="rounded=0;whiteSpace=wrap;html=1;" vertex="1" parent="R6gryLu84jvv2Dww0eq9-24">
          <mxGeometry x="580" y="60" width="120" height="60" as="geometry" />
        </mxCell>
        <mxCell id="R6gryLu84jvv2Dww0eq9-59" value="UI Score" style="rounded=0;whiteSpace=wrap;html=1;" vertex="1" parent="R6gryLu84jvv2Dww0eq9-24">
          <mxGeometry x="760" y="60" width="120" height="60" as="geometry" />
        </mxCell>
        <mxCell id="R6gryLu84jvv2Dww0eq9-48" style="edgeStyle=orthogonalEdgeStyle;rounded=0;orthogonalLoop=1;jettySize=auto;html=1;entryX=0.25;entryY=1;entryDx=0;entryDy=0;" edge="1" parent="1" source="R6gryLu84jvv2Dww0eq9-42" target="R6gryLu84jvv2Dww0eq9-47">
          <mxGeometry relative="1" as="geometry" />
        </mxCell>
        <mxCell id="R6gryLu84jvv2Dww0eq9-42" value="Clavier" style="rounded=0;whiteSpace=wrap;html=1;" vertex="1" parent="1">
          <mxGeometry x="430" y="590" width="120" height="60" as="geometry" />
        </mxCell>
        <mxCell id="R6gryLu84jvv2Dww0eq9-50" style="edgeStyle=orthogonalEdgeStyle;rounded=0;orthogonalLoop=1;jettySize=auto;html=1;entryX=0.75;entryY=1;entryDx=0;entryDy=0;" edge="1" parent="1" source="R6gryLu84jvv2Dww0eq9-43" target="R6gryLu84jvv2Dww0eq9-47">
          <mxGeometry relative="1" as="geometry" />
        </mxCell>
        <mxCell id="R6gryLu84jvv2Dww0eq9-43" value="Controlleur" style="rounded=0;whiteSpace=wrap;html=1;" vertex="1" parent="1">
          <mxGeometry x="600" y="590" width="120" height="60" as="geometry" />
        </mxCell>
        <mxCell id="R6gryLu84jvv2Dww0eq9-52" style="edgeStyle=orthogonalEdgeStyle;rounded=0;orthogonalLoop=1;jettySize=auto;html=1;entryX=0.5;entryY=1;entryDx=0;entryDy=0;" edge="1" parent="1" source="R6gryLu84jvv2Dww0eq9-30" target="R6gryLu84jvv2Dww0eq9-29">
          <mxGeometry relative="1" as="geometry" />
        </mxCell>
        <mxCell id="R6gryLu84jvv2Dww0eq9-54" value="update camera view" style="edgeLabel;html=1;align=center;verticalAlign=middle;resizable=0;points=[];" vertex="1" connectable="0" parent="R6gryLu84jvv2Dww0eq9-52">
          <mxGeometry x="-0.2071" y="-1" relative="1" as="geometry">
            <mxPoint x="1" y="11" as="offset" />
          </mxGeometry>
        </mxCell>
        <mxCell id="R6gryLu84jvv2Dww0eq9-56" style="edgeStyle=orthogonalEdgeStyle;rounded=0;orthogonalLoop=1;jettySize=auto;html=1;entryX=0.5;entryY=1;entryDx=0;entryDy=0;" edge="1" parent="1" source="R6gryLu84jvv2Dww0eq9-40" target="R6gryLu84jvv2Dww0eq9-26">
          <mxGeometry relative="1" as="geometry" />
        </mxCell>
        <mxCell id="R6gryLu84jvv2Dww0eq9-57" value="update position&lt;div&gt;and play animation&lt;/div&gt;" style="edgeLabel;html=1;align=center;verticalAlign=middle;resizable=0;points=[];" vertex="1" connectable="0" parent="R6gryLu84jvv2Dww0eq9-56">
          <mxGeometry x="0.2066" y="2" relative="1" as="geometry">
            <mxPoint as="offset" />
          </mxGeometry>
        </mxCell>
        <mxCell id="R6gryLu84jvv2Dww0eq9-64" style="rounded=0;orthogonalLoop=1;jettySize=auto;html=1;entryX=0.369;entryY=0.956;entryDx=0;entryDy=0;entryPerimeter=0;" edge="1" parent="1" source="R6gryLu84jvv2Dww0eq9-40" target="R6gryLu84jvv2Dww0eq9-33">
          <mxGeometry relative="1" as="geometry" />
        </mxCell>
        <mxCell id="R6gryLu84jvv2Dww0eq9-65" value="show crushing animation" style="edgeLabel;html=1;align=center;verticalAlign=middle;resizable=0;points=[];" vertex="1" connectable="0" parent="R6gryLu84jvv2Dww0eq9-64">
          <mxGeometry x="0.2714" y="4" relative="1" as="geometry">
            <mxPoint as="offset" />
          </mxGeometry>
        </mxCell>
        <mxCell id="R6gryLu84jvv2Dww0eq9-73" style="edgeStyle=orthogonalEdgeStyle;rounded=0;orthogonalLoop=1;jettySize=auto;html=1;entryX=0.5;entryY=1;entryDx=0;entryDy=0;" edge="1" parent="1" source="R6gryLu84jvv2Dww0eq9-71" target="R6gryLu84jvv2Dww0eq9-59">
          <mxGeometry relative="1" as="geometry" />
        </mxCell>
      </root>
    </mxGraphModel>
  </diagram>
</mxfile>
